<svg width="10" height="10" viewBox="0 0 10 10" fill="none" xmlns="http://www.w3.org/2000/svg">
<g clip-path="url(#clip0_139_3249)">
<path d="M5 0.625C6.16032 0.625 7.27328 1.08578 8.09375 1.90625C8.91422 2.72672 9.375 3.83968 9.375 5C9.375 6.16032 8.91422 7.27328 8.09375 8.09375C7.27328 8.91422 6.16032 9.375 5 9.375C3.83968 9.375 2.72672 8.91422 1.90625 8.09375C1.08578 7.27328 0.625 6.16032 0.625 5C0.625 3.83968 1.08578 2.72672 1.90625 1.90625C2.72672 1.08578 3.83968 0.625 5 0.625ZM5 2.8125C4.90054 2.8125 4.8047 2.85155 4.73438 2.92188C4.66405 2.9922 4.625 3.08804 4.625 3.1875V4.625H3.1875C3.13827 4.625 3.08943 4.63449 3.04395 4.65332C2.99845 4.67217 2.9567 4.69955 2.92188 4.73438C2.88705 4.7692 2.85967 4.81095 2.84082 4.85645C2.82199 4.90193 2.8125 4.95077 2.8125 5C2.8125 5.09946 2.85155 5.1953 2.92188 5.26562C2.9922 5.33595 3.08804 5.375 3.1875 5.375H4.625V6.8125C4.625 6.91196 4.66405 7.0078 4.73438 7.07812C4.8047 7.14845 4.90054 7.1875 5 7.1875C5.09946 7.1875 5.1953 7.14845 5.26562 7.07812C5.33595 7.0078 5.375 6.91196 5.375 6.8125V5.375H6.8125C6.91196 5.375 7.0078 5.33595 7.07812 5.26562C7.14845 5.1953 7.1875 5.09946 7.1875 5C7.1875 4.90054 7.14845 4.8047 7.07812 4.73438C7.0078 4.66405 6.91196 4.625 6.8125 4.625H5.375V3.1875C5.375 3.13827 5.36551 3.08943 5.34668 3.04395C5.32783 2.99845 5.30045 2.9567 5.26562 2.92188C5.2308 2.88705 5.18905 2.85967 5.14355 2.84082C5.09807 2.82199 5.04923 2.8125 5 2.8125Z" fill="white"/>
</g>
<defs>
<clipPath id="clip0_139_3249">
<rect width="10" height="10" fill="white"/>
</clipPath>
</defs>
</svg>
