<svg width="10" height="10" viewBox="0 0 10 10" fill="none" xmlns="http://www.w3.org/2000/svg">
<g clip-path="url(#clip0_139_1844)">
<path d="M5 0.625C6.16032 0.625 7.27312 1.08594 8.09359 1.90641C8.91406 2.72688 9.375 3.83968 9.375 5C9.375 6.16032 8.91406 7.27312 8.09359 8.09359C7.27312 8.91406 6.16032 9.375 5 9.375C3.83968 9.375 2.72688 8.91406 1.90641 8.09359C1.08594 7.27312 0.625 6.16032 0.625 5C0.625 3.83968 1.08594 2.72688 1.90641 1.90641C2.72688 1.08594 3.83968 0.625 5 0.625ZM2.8125 5C2.8125 5.09946 2.85201 5.19484 2.92233 5.26516C2.99266 5.33549 3.08804 5.375 3.1875 5.375H6.8125C6.91196 5.375 7.00734 5.33549 7.07767 5.26516C7.14799 5.19484 7.1875 5.09946 7.1875 5C7.1875 4.90054 7.14799 4.80516 7.07767 4.73484C7.00734 4.66451 6.91196 4.625 6.8125 4.625H3.1875C3.13825 4.625 3.08949 4.6347 3.04399 4.65355C2.9985 4.67239 2.95716 4.70001 2.92233 4.73484C2.88751 4.76966 2.85989 4.811 2.84105 4.85649C2.8222 4.90199 2.8125 4.95075 2.8125 5Z" fill="white"/>
</g>
<defs>
<clipPath id="clip0_139_1844">
<rect width="10" height="10" fill="white"/>
</clipPath>
</defs>
</svg>
