<svg width="12" height="12" viewBox="0 0 12 12" fill="none" xmlns="http://www.w3.org/2000/svg">
<path d="M2.00033 5C2.00033 5.1625 2.09199 5.38958 2.35658 5.63125C3.30241 5.12708 4.60241 4.83333 6.00033 4.83333C7.39824 4.83333 8.69824 5.12708 9.64407 5.63125C9.90866 5.38958 10.0003 5.1625 10.0003 5C10.0003 4.74375 9.77532 4.33333 9.00241 3.94583C8.26908 3.57917 7.20866 3.33333 6.00033 3.33333C4.79199 3.33333 3.73158 3.57917 2.99824 3.94583C2.22533 4.33333 2.00033 4.74375 2.00033 5ZM6.00033 5.83333C5.02116 5.83333 4.13991 5.99167 3.43991 6.24375C4.13158 6.50417 5.01699 6.66667 6.00033 6.66667C6.98366 6.66667 7.86907 6.50417 8.56074 6.24375C7.86074 5.99167 6.97949 5.83333 6.00033 5.83333ZM0.666992 5C0.666992 3.96667 1.48783 3.2125 2.40241 2.75417C3.35658 2.27708 4.63158 2 6.00033 2C7.36907 2 8.64408 2.27708 9.59824 2.75417C10.5128 3.2125 11.3337 3.96667 11.3337 5V7C11.3337 8.03333 10.5128 8.7875 9.59824 9.24583C8.64408 9.72292 7.36907 10 6.00033 10C4.63158 10 3.35658 9.72292 2.40241 9.24583C1.48783 8.7875 0.666992 8.03333 0.666992 7V5Z" fill="white"/>
</svg>
