<svg width="12" height="12" viewBox="0 0 12 12" fill="none" xmlns="http://www.w3.org/2000/svg">
<path fill-rule="evenodd" clip-rule="evenodd" d="M2.515 6.85049L2.87 4.00549C2.89555 3.80082 2.96303 3.60361 3.06824 3.4262C3.17344 3.24879 3.3141 3.09498 3.48143 2.97438C3.64877 2.85379 3.83917 2.769 4.04075 2.72531C4.24233 2.68163 4.45076 2.67999 4.653 2.72049C5.0815 2.80649 5.562 2.98049 6 2.98049C6.438 2.98049 6.9185 2.80649 7.347 2.72049C7.54921 2.68006 7.75758 2.68176 7.9591 2.72549C8.16062 2.76921 8.35097 2.85401 8.51824 2.9746C8.68551 3.09519 8.82613 3.24897 8.9313 3.42634C9.03647 3.60372 9.10394 3.80087 9.1295 4.00549L9.4855 6.85049C10.0535 6.99249 11 7.26749 11 7.99999C11 8.79799 9.8935 9.06099 9.29 9.19499C8.431 9.38599 7.268 9.49999 6 9.49999C4.732 9.49999 3.569 9.38599 2.71 9.19499C2.106 9.06099 1 8.79799 1 7.99999C1 7.26749 1.9465 6.99249 2.515 6.85049ZM2.9265 8.21899C2.614 8.14949 2.3715 8.07399 2.199 7.99999C2.3715 7.92599 2.614 7.84999 2.9265 7.78099C3.6955 7.60999 4.7825 7.49999 6 7.49999C7.2175 7.49999 8.3045 7.60999 9.0735 7.78099C9.386 7.85049 9.6285 7.92599 9.801 7.99999C9.629 8.07399 9.386 8.14949 9.0735 8.21899C8.3045 8.38999 7.2175 8.49999 6 8.49999C4.7825 8.49999 3.6955 8.38999 2.9265 8.21899Z" fill="white"/>
</svg>
