<svg width="12" height="12" viewBox="0 0 12 12" fill="none" xmlns="http://www.w3.org/2000/svg">
<path fill-rule="evenodd" clip-rule="evenodd" d="M4.8405 1.95238C4.8405 1.42619 5.17192 1 5.69764 1C6.22335 1 6.55478 1.42619 6.55478 1.95238L6.65002 5.7619C6.65002 5.58857 6.88811 3.06667 6.88811 2.90476C6.88811 2.42857 7.17145 1.95238 7.69764 1.95238C8.22383 1.95238 8.55478 2.37857 8.55478 2.90476V6.36571C8.59431 6.34286 8.69764 4.53429 8.69764 4.33333C8.69764 3.85714 8.82288 3.38095 9.26907 3.38095C9.71573 3.38095 9.98335 3.80714 9.98335 4.33333V7.19048C9.98335 8.20082 9.58199 9.16979 8.86757 9.88422C8.15314 10.5986 7.18418 11 6.17383 11H5.85288C5.14545 11 4.45201 10.803 3.85023 10.4311C3.24846 10.0591 2.76213 9.52701 2.44573 8.89429L1.0924 6.18762C0.919067 5.84095 1.0524 5.39333 1.43526 5.22381C1.63669 5.13476 1.8624 5.08476 2.07478 5.15238C2.6024 5.32048 2.5243 5.5619 2.8405 5.8619V2.90476C2.8405 2.37857 3.17145 1.95238 3.69764 1.95238C4.17383 1.95238 4.46383 2.57857 4.50716 2.90476C4.56669 3.35143 4.74526 5.58762 4.74526 5.76095L4.8405 1.95238Z" fill="white"/>
</svg>
