<svg width="12" height="12" viewBox="0 0 12 12" fill="none" xmlns="http://www.w3.org/2000/svg">
<path fill-rule="evenodd" clip-rule="evenodd" d="M3.20619 2.40023C3.45587 2.15048 3.79453 2.01013 4.14767 2.01006C4.49834 2.01006 5.01236 1.9124 5.1695 2.32566C5.23357 2.49391 5.34726 2.63872 5.4955 2.7409C5.64374 2.84307 5.81953 2.89778 5.99957 2.89778C6.1796 2.89778 6.35539 2.84307 6.50363 2.7409C6.65187 2.63872 6.76556 2.49391 6.82963 2.32566C6.98677 1.91285 7.50123 2.0105 7.85146 2.0105C8.20439 2.01058 8.54285 2.15075 8.79249 2.40023L10.4384 4.04572C10.6049 4.2122 10.6983 4.43797 10.6983 4.67337C10.6983 4.90878 10.6049 5.13454 10.4384 5.30103L9.78236 5.95709C9.55154 6.18791 9.22928 6.26293 8.93898 6.19057L9.05971 8.60176C9.06874 8.78201 9.04103 8.96221 8.97827 9.13142C8.91551 9.30063 8.81901 9.45531 8.69464 9.58608C8.57026 9.71685 8.4206 9.82098 8.25475 9.89213C8.08889 9.96329 7.9103 9.99999 7.72983 10H4.2693C4.08883 9.99999 3.91024 9.96329 3.74439 9.89213C3.57853 9.82098 3.42887 9.71685 3.30449 9.58608C3.18012 9.45531 3.08362 9.30063 3.02086 9.13142C2.9581 8.96221 2.93039 8.78201 2.93942 8.60176L3.06015 6.19057C2.91138 6.22782 2.7555 6.22589 2.6077 6.18497C2.45989 6.14405 2.32521 6.06554 2.21677 5.95709L1.56071 5.30103C1.39428 5.13454 1.30078 4.90878 1.30078 4.67337C1.30078 4.43797 1.39428 4.2122 1.56071 4.04572L3.20619 2.40023Z" fill="white"/>
</svg>
