<svg width="12" height="12" viewBox="0 0 12 12" fill="none" xmlns="http://www.w3.org/2000/svg">
<g clip-path="url(#clip0_139_451)">
<path d="M10.821 3.58597C10.8211 3.51457 10.8051 3.44406 10.7742 3.37969C10.7432 3.31532 10.6982 3.25874 10.6425 3.21416C10.4738 3.11657 10.2145 3.14439 9.93643 3.17511C9.86754 3.18283 9.79812 3.18988 9.72817 3.19625C9.41549 3.22231 9.078 3.21534 8.83347 3.13313C8.45161 3.00548 8.1165 2.68033 7.88342 2.35821C7.62102 1.98618 7.19442 2.2461 6.86446 2.44719C6.80277 2.48452 6.74416 2.52033 6.69107 2.54946C6.45919 2.67498 6.17481 2.82009 5.86866 2.95535C5.80418 2.90966 5.72931 2.88078 5.65085 2.87131C5.57239 2.86185 5.4928 2.8721 5.4193 2.90114C5.3458 2.93018 5.2807 2.9771 5.2299 3.03764C5.17909 3.09818 5.14419 3.17043 5.12835 3.24786C4.91168 3.33003 4.70519 3.40948 4.50887 3.48621C4.44284 3.41827 4.35801 3.3716 4.26527 3.35222C4.17252 3.33284 4.0761 3.34163 3.98839 3.37744C3.90067 3.41326 3.82567 3.47449 3.773 3.55325C3.72033 3.63201 3.69241 3.72471 3.69282 3.81946C2.91078 4.15371 2.32991 4.45724 1.90784 4.78238C1.5503 5.05865 1.29105 5.36052 1.1189 5.72157C0.9496 6.07768 0.879428 6.45986 0.852359 6.87192C0.815944 7.43013 1.27365 7.85368 1.78784 7.85419L9.86666 7.86228C10.1187 7.86253 10.3606 7.76263 10.539 7.58457C10.7174 7.4065 10.8178 7.16485 10.8181 6.91278L10.8185 6.43756L7.49196 6.43423C7.36647 6.43327 7.24645 6.38271 7.1581 6.29359C7.06974 6.20447 7.02023 6.08402 7.02035 5.95853C7.02048 5.83304 7.07024 5.71269 7.15877 5.62374C7.2473 5.5348 7.36742 5.48449 7.49291 5.48378L10.8195 5.48711L10.821 3.58597Z" fill="white"/>
</g>
<defs>
<clipPath id="clip0_139_451">
<rect width="12" height="12" fill="white"/>
</clipPath>
</defs>
</svg>
